<svg xmlns="http://www.w3.org/2000/svg" viewBox="0 0 200 200">
    <rect width="200" height="200" fill="#f4f4f4" />
    <g fill="#1aad19">
        <rect x="16" y="16" width="56" height="56" />
        <rect x="128" y="16" width="56" height="56" />
        <rect x="16" y="128" width="56" height="56" />
    </g>
    <g fill="#fff">
        <rect x="28" y="28" width="32" height="32" />
        <rect x="140" y="28" width="32" height="32" />
        <rect x="28" y="140" width="32" height="32" />
    </g>
    <g fill="#1aad19">
        <rect x="74" y="74" width="20" height="20" />
        <rect x="106" y="74" width="20" height="20" />
        <rect x="74" y="106" width="20" height="20" />
        <rect x="106" y="106" width="20" height="20" />
        <rect x="138" y="90" width="12" height="12" />
        <rect x="158" y="90" width="12" height="12" />
        <rect x="90" y="138" width="12" height="12" />
        <rect x="110" y="138" width="12" height="12" />
        <rect x="138" y="138" width="12" height="12" />
        <rect x="158" y="138" width="12" height="12" />
    </g>
</svg>
