<svg xmlns="http://www.w3.org/2000/svg" viewBox="0 0 200 200">
    <rect width="200" height="200" fill="#f7f7f7" />
    <g fill="#00a0e9">
        <rect x="18" y="18" width="54" height="54" />
        <rect x="128" y="18" width="54" height="54" />
        <rect x="18" y="128" width="54" height="54" />
    </g>
    <g fill="#fff">
        <rect x="30" y="30" width="30" height="30" />
        <rect x="140" y="30" width="30" height="30" />
        <rect x="30" y="140" width="30" height="30" />
    </g>
    <g fill="#00a0e9">
        <rect x="76" y="76" width="18" height="18" />
        <rect x="106" y="76" width="18" height="18" />
        <rect x="76" y="106" width="18" height="18" />
        <rect x="106" y="106" width="18" height="18" />
        <rect x="138" y="90" width="10" height="10" />
        <rect x="156" y="90" width="10" height="10" />
        <rect x="90" y="138" width="10" height="10" />
        <rect x="110" y="138" width="10" height="10" />
        <rect x="138" y="138" width="10" height="10" />
        <rect x="156" y="138" width="10" height="10" />
    </g>
</svg>
